<svg xmlns="http://www.w3.org/2000/svg" width="50" height="50" fill="none" overflow="visible"><g><path d="M 0 50 L 0 0 L 50 0 L 50 50 Z" fill="transparent"></path><path d="M 25.002 29.688 C 23.197 29.689 21.42 29.243 19.83 28.39 C 18.239 27.537 16.885 26.303 15.888 24.799 L 18.491 23.069 C 19.204 24.143 20.172 25.024 21.308 25.634 C 22.444 26.243 23.713 26.562 25.002 26.562 C 26.291 26.562 27.561 26.243 28.697 25.634 C 29.833 25.024 30.8 24.143 31.513 23.069 L 34.116 24.799 C 33.119 26.303 31.765 27.537 30.174 28.39 C 28.584 29.243 26.807 29.689 25.002 29.688 Z" fill="rgb(246, 254, 255)"></path><path d="M 31.25 12.5 C 30.632 12.5 30.028 12.683 29.514 13.027 C 29 13.37 28.599 13.858 28.363 14.429 C 28.126 15 28.064 15.629 28.185 16.235 C 28.306 16.841 28.603 17.398 29.04 17.835 C 29.477 18.272 30.034 18.57 30.64 18.69 C 31.247 18.811 31.875 18.749 32.446 18.512 C 33.017 18.276 33.505 17.875 33.848 17.361 C 34.192 16.847 34.375 16.243 34.375 15.625 C 34.379 15.214 34.301 14.805 34.145 14.425 C 33.99 14.044 33.76 13.697 33.469 13.406 C 33.178 13.115 32.832 12.885 32.451 12.73 C 32.07 12.574 31.662 12.496 31.25 12.5 Z" fill="rgb(246, 254, 255)"></path><path d="M 18.75 12.5 C 18.132 12.5 17.528 12.683 17.014 13.027 C 16.5 13.37 16.099 13.858 15.863 14.429 C 15.626 15 15.564 15.629 15.685 16.235 C 15.806 16.841 16.103 17.398 16.54 17.835 C 16.977 18.272 17.534 18.57 18.14 18.69 C 18.747 18.811 19.375 18.749 19.946 18.512 C 20.517 18.276 21.005 17.875 21.348 17.361 C 21.692 16.847 21.875 16.243 21.875 15.625 C 21.879 15.214 21.801 14.805 21.645 14.425 C 21.49 14.044 21.26 13.697 20.969 13.406 C 20.678 13.115 20.332 12.885 19.951 12.73 C 19.57 12.574 19.162 12.496 18.75 12.5 Z" fill="rgb(246, 254, 255)"></path><path d="M 27.712 46.875 L 25 45.313 L 31.25 34.375 L 40.625 34.375 C 41.036 34.376 41.442 34.295 41.822 34.139 C 42.201 33.982 42.546 33.752 42.836 33.461 C 43.127 33.171 43.357 32.826 43.514 32.447 C 43.67 32.067 43.751 31.661 43.75 31.25 L 43.75 9.375 C 43.751 8.964 43.67 8.558 43.514 8.178 C 43.357 7.799 43.127 7.454 42.836 7.164 C 42.546 6.873 42.201 6.643 41.822 6.486 C 41.442 6.33 41.036 6.249 40.625 6.25 L 9.375 6.25 C 8.964 6.249 8.558 6.33 8.178 6.486 C 7.799 6.643 7.454 6.873 7.164 7.164 C 6.873 7.454 6.643 7.799 6.486 8.178 C 6.33 8.558 6.249 8.964 6.25 9.375 L 6.25 31.25 C 6.249 31.661 6.33 32.067 6.486 32.447 C 6.643 32.826 6.873 33.171 7.164 33.461 C 7.454 33.752 7.799 33.982 8.178 34.139 C 8.558 34.295 8.964 34.376 9.375 34.375 L 23.438 34.375 L 23.438 37.5 L 9.375 37.5 C 8.554 37.5 7.741 37.339 6.983 37.025 C 6.225 36.71 5.536 36.25 4.955 35.67 C 4.375 35.089 3.914 34.4 3.6 33.642 C 3.286 32.884 3.125 32.071 3.125 31.25 L 3.125 9.375 C 3.125 8.554 3.286 7.741 3.6 6.983 C 3.914 6.225 4.375 5.535 4.955 4.955 C 5.535 4.375 6.225 3.914 6.983 3.6 C 7.741 3.286 8.554 3.125 9.375 3.125 L 40.625 3.125 C 41.446 3.125 42.259 3.286 43.017 3.6 C 43.775 3.914 44.465 4.375 45.045 4.955 C 45.625 5.535 46.086 6.225 46.4 6.983 C 46.714 7.741 46.875 8.554 46.875 9.375 L 46.875 31.25 C 46.875 32.071 46.714 32.884 46.4 33.642 C 46.085 34.4 45.625 35.089 45.045 35.67 C 44.464 36.25 43.775 36.71 43.017 37.025 C 42.259 37.339 41.446 37.5 40.625 37.5 L 33.07 37.5 Z" fill="rgb(246, 254, 255)"></path></g></svg>