<svg xmlns="http://www.w3.org/2000/svg" width="45" height="50" fill="none"><path d="M 3.992 15.451 L 42.369 15.451" fill="transparent" stroke-width="5" stroke="rgb(0,80,13)" stroke-linecap="round" stroke-miterlimit="10" stroke-dasharray=""></path><path d="M 5.625 15.451 C 5.625 11.137 9.281 7.639 13.79 7.639 C 18.3 7.639 21.956 11.137 21.956 15.451 C 21.956 19.766 18.3 23.264 13.79 23.264 C 9.281 23.264 5.625 19.766 5.625 15.451 Z" fill="rgb(0,80,13)"></path><path d="M 10.524 15.451 C 10.524 13.725 11.986 12.326 13.79 12.326 C 15.594 12.326 17.056 13.725 17.056 15.451 C 17.056 17.177 15.594 18.576 13.79 18.576 C 11.986 18.576 10.524 17.177 10.524 15.451 Z" fill="rgb(255,255,255)"></path><path d="M 41.552 34.201 L 3.175 34.201" fill="transparent" stroke-width="5" stroke="rgb(0,80,13)" stroke-linecap="round" stroke-miterlimit="10" stroke-dasharray=""></path><path d="M 39.919 34.201 C 39.919 29.887 36.264 26.389 31.754 26.389 C 27.244 26.389 23.589 29.887 23.589 34.201 C 23.589 38.516 27.244 42.014 31.754 42.014 C 36.264 42.014 39.919 38.516 39.919 34.201 Z" fill="rgb(0,80,13)"></path><path d="M 35.02 34.201 C 35.02 32.475 33.558 31.076 31.754 31.076 C 29.95 31.076 28.488 32.475 28.488 34.201 C 28.488 35.927 29.95 37.326 31.754 37.326 C 33.558 37.326 35.02 35.927 35.02 34.201 Z" fill="rgb(255,255,255)"></path></svg>