<svg width="516" height="511" viewBox="-3 -3 516 511" fill="none" xmlns="http://www.w3.org/2000/svg">
<rect width="510" height="505" rx="130" fill="#F6FEFF"/>
<circle cx="395.733" cy="114.272" r="26.7718" fill="#00500D" stroke="#00500D" stroke-width="5"/>
<circle cx="255" cy="252" r="110" fill="#00500D"/>
<circle cx="255" cy="252" r="50" fill="#F6FEFF"/>
<mask id="path-5-inside-1_8638_118038" fill="white">
<path d="M388.641 0C455.665 0 510 54.3345 510 121.359V383.641C510 450.665 455.665 505 388.641 505H121.359C54.3347 505 0.00024117 450.666 0 383.642V121.359C0 54.3345 54.3345 0 121.359 0H388.641Z"/>
</mask>
<path d="M0 383.642L-50 383.642L-50 383.642L0 383.642ZM388.641 0V50C428.051 50 460 81.9488 460 121.359H510H560C560 26.7203 483.28 -50 388.641 -50V0ZM510 121.359H460V383.641H510H560V121.359H510ZM510 383.641H460C460 423.051 428.051 455 388.641 455V505V555C483.28 555 560 478.28 560 383.641H510ZM388.641 505V455H121.359V505V555H388.641V505ZM121.359 505V455C81.9486 455 50.0001 423.052 50 383.641L0 383.642L-50 383.642C-49.9997 478.281 26.7208 555 121.359 555V505ZM0 383.642H50V121.359H0H-50V383.642H0ZM0 121.359H50C50 81.9488 81.9488 50 121.359 50V0V-50C26.7203 -50 -50 26.7203 -50 121.359H0ZM121.359 0V50H388.641V0V-50H121.359V0Z" fill="#00500D" mask="url(#path-5-inside-1_8638_118038)"/>
</svg>
