<svg width="497" height="148" viewBox="0 0 497 148" fill="none" xmlns="http://www.w3.org/2000/svg">
<rect x="1" y="1" width="495" height="146" rx="15" stroke="#F6FEFF" stroke-width="2"/>
<path d="M104.571 76.5438C104.478 66.4371 113.059 61.5201 113.452 61.2912C108.592 54.3829 101.059 53.439 98.4124 53.3638C92.086 52.7147 85.9495 57.0546 82.7268 57.0546C79.4398 57.0546 74.4771 53.4265 69.1285 53.5331C62.2458 53.6366 55.8069 57.5219 52.2754 63.5552C44.9874 75.8571 50.4229 93.9352 57.4053 103.879C60.8982 108.749 64.9796 114.186 70.3218 113.995C75.5481 113.785 77.5004 110.746 83.8074 110.746C90.0566 110.746 91.8899 113.995 97.3382 113.873C102.947 113.785 106.479 108.981 109.849 104.067C113.886 98.4853 115.507 92.9882 115.571 92.7059C115.439 92.662 104.678 88.6576 104.571 76.5438Z" fill="#F6FEFF"/>
<path d="M94.2795 46.8224C97.0905 43.395 99.0138 38.732 98.4799 34C94.4114 34.1756 89.3233 36.7439 86.3933 40.0961C83.801 43.05 81.4853 47.8917 82.0835 52.445C86.6538 52.7774 91.3463 50.1966 94.2795 46.8224Z" fill="#F6FEFF"/>
<path d="M189.923 91.6291H181.362L176.673 77.2619H160.373L155.906 91.6291H147.571L163.72 42.7166H173.695L189.923 91.6291ZM175.259 71.2342L171.018 58.4621C170.569 57.1573 169.729 54.0847 168.489 49.2478H168.338C167.844 51.3281 167.049 54.4008 165.955 58.4621L161.79 71.2342H175.259Z" fill="#F6FEFF"/>
<path d="M231.453 73.5608C231.453 79.5591 229.791 84.3004 226.466 87.781C223.488 90.8794 219.79 92.4267 215.376 92.4267C210.611 92.4267 207.188 90.7581 205.103 87.4208H204.952V106H196.916V67.9705C196.916 64.1995 196.814 60.3293 196.618 56.3599H203.686L204.134 61.9502H204.285C206.965 57.7382 211.033 55.6358 216.491 55.6358C220.759 55.6358 224.321 57.2787 227.171 60.5682C230.028 63.8614 231.453 68.191 231.453 73.5608ZM223.265 73.8475C223.265 70.4147 222.474 67.5846 220.883 65.3573C219.145 63.0344 216.812 61.873 213.887 61.873C211.904 61.873 210.102 62.5199 208.492 63.7952C206.879 65.0816 205.823 66.7613 205.329 68.8416C205.081 69.8119 204.956 70.6058 204.956 71.2306V77.1113C204.956 79.6767 205.763 81.8415 207.376 83.6094C208.99 85.3773 211.086 86.2594 213.664 86.2594C216.691 86.2594 219.047 85.12 220.732 82.8486C222.421 80.5735 223.265 77.5744 223.265 73.8475Z" fill="#F6FEFF"/>
<path d="M273.059 73.5608C273.059 79.5591 271.396 84.3004 268.068 87.781C265.094 90.8794 261.396 92.4267 256.981 92.4267C252.216 92.4267 248.794 90.7581 246.713 87.4208H246.562V106H238.525V67.9705C238.525 64.1995 238.423 60.3293 238.227 56.3599H245.295L245.744 61.9502H245.895C248.571 57.7382 252.639 55.6358 258.101 55.6358C262.364 55.6358 265.927 57.2787 268.784 60.5682C271.63 63.8614 273.059 68.191 273.059 73.5608ZM264.871 73.8475C264.871 70.4147 264.076 67.5846 262.485 65.3573C260.747 63.0344 258.421 61.873 255.492 61.873C253.506 61.873 251.708 62.5199 250.094 63.7952C248.481 65.0816 247.429 66.7613 246.935 68.8416C246.69 69.8119 246.562 70.6058 246.562 71.2306V77.1113C246.562 79.6767 247.369 81.8415 248.975 83.6094C250.588 85.3736 252.684 86.2594 255.27 86.2594C258.297 86.2594 260.653 85.12 262.338 82.8486C264.027 80.5735 264.871 77.5744 264.871 73.8475Z" fill="#F6FEFF"/>
<path d="M319.576 77.9125C319.576 82.0731 318.095 85.4581 315.121 88.0713C311.852 90.9271 307.302 92.3532 301.456 92.3532C296.058 92.3532 291.73 91.3388 288.454 89.3063L290.316 82.7751C293.845 84.8553 297.716 85.8992 301.934 85.8992C304.961 85.8992 307.318 85.2302 309.01 83.8997C310.695 82.5692 311.536 80.783 311.536 78.5557C311.536 76.571 310.842 74.8986 309.451 73.5424C308.068 72.1862 305.757 70.9255 302.53 69.7604C293.747 66.5665 289.359 61.8877 289.359 55.735C289.359 51.7141 290.897 48.4173 293.977 45.8518C297.045 43.2827 301.139 42 306.258 42C310.823 42 314.616 42.7755 317.643 44.3229L315.633 50.7107C312.806 49.2112 309.609 48.4614 306.032 48.4614C303.205 48.4614 300.996 49.1413 299.413 50.4939C298.074 51.7031 297.403 53.1769 297.403 54.9228C297.403 56.856 298.169 58.4548 299.707 59.7118C301.045 60.8733 303.476 62.1303 307.005 63.4865C311.321 65.1808 314.491 67.1619 316.531 69.4333C318.562 71.6974 319.576 74.5311 319.576 77.9125Z" fill="#F6FEFF"/>
<path d="M346.149 62.2405H337.29V79.3642C337.29 83.7196 338.851 85.8954 341.98 85.8954C343.416 85.8954 344.607 85.7741 345.549 85.5316L345.772 91.4821C344.189 92.0591 342.104 92.3495 339.522 92.3495C336.348 92.3495 333.867 91.4049 332.077 89.5194C330.294 87.6302 329.396 84.462 329.396 80.0111V62.2331H324.119V56.3525H329.396V49.8947L337.29 47.5719V56.3525H346.149V62.2405Z" fill="#F6FEFF"/>
<path d="M386.118 73.7041C386.118 79.1254 384.528 83.5763 381.354 87.0569C378.025 90.6404 373.607 92.4267 368.099 92.4267C362.792 92.4267 358.566 90.7103 355.414 87.2774C352.263 83.8446 350.687 79.5113 350.687 74.2885C350.687 68.8232 352.308 64.3465 355.562 60.8659C358.807 57.3816 363.188 55.6395 368.695 55.6395C374.003 55.6395 378.274 57.3559 381.497 60.7924C384.58 64.126 386.118 68.4299 386.118 73.7041ZM377.78 73.9577C377.78 70.705 377.067 67.9153 375.624 65.5888C373.939 62.7734 371.53 61.3694 368.408 61.3694C365.178 61.3694 362.724 62.7771 361.039 65.5888C359.595 67.919 358.883 70.7528 358.883 74.1047C358.883 77.3575 359.595 80.1471 361.039 82.47C362.777 85.2853 365.204 86.6894 368.337 86.6894C371.405 86.6894 373.814 85.2559 375.552 82.3965C377.033 80.0258 377.78 77.2068 377.78 73.9577Z" fill="#F6FEFF"/>
<path d="M412.242 63.2513C411.447 63.1079 410.599 63.0344 409.709 63.0344C406.882 63.0344 404.695 64.0746 403.157 66.1585C401.819 67.9962 401.148 70.3191 401.148 73.1234V91.6292H393.115L393.19 67.467C393.19 63.402 393.088 59.7008 392.889 56.3635H399.889L400.183 63.1116H400.405C401.254 60.7924 402.592 58.9253 404.424 57.525C406.214 56.2643 408.148 55.6358 410.233 55.6358C410.976 55.6358 411.647 55.6873 412.242 55.7792V63.2513Z" fill="#F6FEFF"/>
<path d="M448.186 72.3258C448.186 73.7298 448.092 74.9133 447.892 75.88H423.781C423.875 79.3642 425.04 82.0289 427.279 83.8666C429.311 85.5095 431.939 86.3328 435.165 86.3328C438.735 86.3328 441.992 85.7778 444.921 84.6642L446.18 90.1038C442.757 91.5593 438.716 92.2833 434.053 92.2833C428.444 92.2833 424.041 90.6735 420.837 87.4575C417.64 84.2415 416.038 79.9229 416.038 74.5053C416.038 69.187 417.527 64.7581 420.509 61.2261C423.63 57.4551 427.848 55.5696 433.156 55.5696C438.37 55.5696 442.316 57.4551 444.997 61.2261C447.119 64.2215 448.186 67.9264 448.186 72.3258ZM440.522 70.2933C440.575 67.9705 440.051 65.9637 438.961 64.2693C437.57 62.0898 435.433 61.0019 432.557 61.0019C429.929 61.0019 427.792 62.0641 426.16 64.1958C424.821 65.8902 424.026 67.9227 423.781 70.2896H440.522V70.2933Z" fill="#F6FEFF"/>
<path d="M189.923 91.6291H181.362L176.673 77.2619H160.373L155.906 91.6291H147.571L163.72 42.7166H173.695L189.923 91.6291ZM175.259 71.2342L171.018 58.4621C170.569 57.1573 169.729 54.0847 168.489 49.2478H168.338C167.844 51.3281 167.049 54.4008 165.955 58.4621L161.79 71.2342H175.259Z" stroke="black"/>
<path d="M231.453 73.5608C231.453 79.5591 229.791 84.3004 226.466 87.781C223.488 90.8794 219.79 92.4267 215.376 92.4267C210.611 92.4267 207.188 90.7581 205.103 87.4208H204.952V106H196.916V67.9705C196.916 64.1995 196.814 60.3293 196.618 56.3599H203.686L204.134 61.9502H204.285C206.965 57.7382 211.033 55.6358 216.491 55.6358C220.759 55.6358 224.321 57.2787 227.171 60.5682C230.028 63.8614 231.453 68.191 231.453 73.5608ZM223.265 73.8475C223.265 70.4147 222.474 67.5846 220.883 65.3573C219.145 63.0344 216.812 61.873 213.887 61.873C211.904 61.873 210.102 62.5199 208.492 63.7952C206.879 65.0816 205.823 66.7613 205.329 68.8416C205.081 69.8119 204.956 70.6058 204.956 71.2306V77.1113C204.956 79.6767 205.763 81.8415 207.376 83.6094C208.99 85.3773 211.086 86.2594 213.664 86.2594C216.691 86.2594 219.047 85.12 220.732 82.8486C222.421 80.5735 223.265 77.5744 223.265 73.8475Z" stroke="black"/>
<path d="M273.059 73.5608C273.059 79.5591 271.396 84.3004 268.068 87.781C265.094 90.8794 261.396 92.4267 256.981 92.4267C252.216 92.4267 248.794 90.7581 246.713 87.4208H246.562V106H238.525V67.9705C238.525 64.1995 238.423 60.3293 238.227 56.3599H245.295L245.744 61.9502H245.895C248.571 57.7382 252.639 55.6358 258.101 55.6358C262.364 55.6358 265.927 57.2787 268.784 60.5682C271.63 63.8614 273.059 68.191 273.059 73.5608ZM264.871 73.8475C264.871 70.4147 264.076 67.5846 262.485 65.3573C260.747 63.0344 258.421 61.873 255.492 61.873C253.506 61.873 251.708 62.5199 250.094 63.7952C248.481 65.0816 247.429 66.7613 246.935 68.8416C246.69 69.8119 246.562 70.6058 246.562 71.2306V77.1113C246.562 79.6767 247.369 81.8415 248.975 83.6094C250.588 85.3736 252.684 86.2594 255.27 86.2594C258.297 86.2594 260.653 85.12 262.338 82.8486C264.027 80.5735 264.871 77.5744 264.871 73.8475Z" stroke="black"/>
<path d="M319.576 77.9125C319.576 82.0731 318.095 85.4581 315.121 88.0713C311.852 90.9271 307.302 92.3532 301.456 92.3532C296.058 92.3532 291.73 91.3388 288.454 89.3063L290.316 82.7751C293.845 84.8553 297.716 85.8992 301.934 85.8992C304.961 85.8992 307.318 85.2302 309.01 83.8997C310.695 82.5692 311.536 80.783 311.536 78.5557C311.536 76.571 310.842 74.8986 309.451 73.5424C308.068 72.1862 305.757 70.9255 302.53 69.7604C293.747 66.5665 289.359 61.8877 289.359 55.735C289.359 51.7141 290.897 48.4173 293.977 45.8518C297.045 43.2827 301.139 42 306.258 42C310.823 42 314.616 42.7755 317.643 44.3229L315.633 50.7107C312.806 49.2112 309.609 48.4614 306.032 48.4614C303.205 48.4614 300.996 49.1413 299.413 50.4939C298.074 51.7031 297.403 53.1769 297.403 54.9228C297.403 56.856 298.169 58.4548 299.707 59.7118C301.045 60.8733 303.476 62.1303 307.005 63.4865C311.321 65.1808 314.491 67.1619 316.531 69.4333C318.562 71.6974 319.576 74.5311 319.576 77.9125Z" stroke="black"/>
<path d="M346.149 62.2405H337.29V79.3642C337.29 83.7196 338.851 85.8954 341.98 85.8954C343.416 85.8954 344.607 85.7741 345.549 85.5316L345.772 91.4821C344.189 92.0591 342.104 92.3495 339.522 92.3495C336.348 92.3495 333.867 91.4049 332.077 89.5194C330.294 87.6302 329.396 84.462 329.396 80.0111V62.2331H324.119V56.3525H329.396V49.8947L337.29 47.5719V56.3525H346.149V62.2405Z" stroke="black"/>
<path d="M386.118 73.7041C386.118 79.1254 384.528 83.5763 381.354 87.0569C378.025 90.6404 373.607 92.4267 368.099 92.4267C362.792 92.4267 358.566 90.7103 355.414 87.2774C352.263 83.8446 350.687 79.5113 350.687 74.2885C350.687 68.8232 352.308 64.3465 355.562 60.8659C358.807 57.3816 363.188 55.6395 368.695 55.6395C374.003 55.6395 378.274 57.3559 381.497 60.7924C384.58 64.126 386.118 68.4299 386.118 73.7041ZM377.78 73.9577C377.78 70.705 377.067 67.9153 375.624 65.5888C373.939 62.7734 371.53 61.3694 368.408 61.3694C365.178 61.3694 362.724 62.7771 361.039 65.5888C359.595 67.919 358.883 70.7528 358.883 74.1047C358.883 77.3575 359.595 80.1471 361.039 82.47C362.777 85.2853 365.204 86.6894 368.337 86.6894C371.405 86.6894 373.814 85.2559 375.552 82.3965C377.033 80.0258 377.78 77.2068 377.78 73.9577Z" stroke="black"/>
<path d="M412.242 63.2513C411.447 63.1079 410.599 63.0344 409.709 63.0344C406.882 63.0344 404.695 64.0746 403.157 66.1585C401.819 67.9962 401.148 70.3191 401.148 73.1234V91.6292H393.115L393.19 67.467C393.19 63.402 393.088 59.7008 392.889 56.3635H399.889L400.183 63.1116H400.405C401.254 60.7924 402.592 58.9253 404.424 57.525C406.214 56.2643 408.148 55.6358 410.233 55.6358C410.976 55.6358 411.647 55.6873 412.242 55.7792V63.2513Z" stroke="black"/>
<path d="M448.186 72.3258C448.186 73.7298 448.092 74.9133 447.892 75.88H423.781C423.875 79.3642 425.04 82.0289 427.279 83.8666C429.311 85.5095 431.939 86.3328 435.165 86.3328C438.735 86.3328 441.992 85.7778 444.921 84.6642L446.18 90.1038C442.757 91.5593 438.716 92.2833 434.053 92.2833C428.444 92.2833 424.041 90.6735 420.837 87.4575C417.64 84.2415 416.038 79.9229 416.038 74.5053C416.038 69.187 417.527 64.7581 420.509 61.2261C423.63 57.4551 427.848 55.5696 433.156 55.5696C438.37 55.5696 442.316 57.4551 444.997 61.2261C447.119 64.2215 448.186 67.9264 448.186 72.3258ZM440.522 70.2933C440.575 67.9705 440.051 65.9637 438.961 64.2693C437.57 62.0898 435.433 61.0019 432.557 61.0019C429.929 61.0019 427.792 62.0641 426.16 64.1958C424.821 65.8902 424.026 67.9227 423.781 70.2896H440.522V70.2933Z" stroke="black"/>
</svg>
