<svg xmlns="http://www.w3.org/2000/svg" width="24" height="24" fill="none"><g><path d="M 0 0 L 24 0 L 24 24 L 0 24 Z" fill="transparent"></path><path d="M 17 3 C 18.589 3 19.902 4.238 19.995 5.824 L 20 6 L 20 10.35 L 20.594 10.086 C 21.208 9.813 21.916 10.236 21.994 10.884 L 22 11 L 22 19 C 22 20.047 21.194 20.917 20.15 20.995 L 20 21 L 4 21 C 2.953 21 2.083 20.194 2.005 19.15 L 2 19 L 2 11 C 2 10.328 2.675 9.853 3.297 10.045 L 3.407 10.086 L 4 10.35 L 4 6 C 4 4.411 5.238 3.098 6.824 3.005 L 7 3 Z M 20 12.539 L 12.812 15.733 C 12.295 15.963 11.705 15.963 11.188 15.733 L 4 12.54 L 4 19 L 20 19 Z M 17 5 L 7 5 C 6.448 5 6 5.448 6 6 L 6 11.239 L 12 13.906 L 18 11.239 L 18 6 C 18 5.448 17.552 5 17 5 Z M 12 8 C 12.529 8.001 12.966 8.413 12.997 8.941 C 13.028 9.47 12.642 9.931 12.117 9.993 L 12 10 L 10 10 C 9.471 9.999 9.034 9.587 9.003 9.059 C 8.972 8.53 9.358 8.069 9.883 8.007 L 10 8 Z" fill="rgb(246, 254, 255)"></path></g></svg>