<svg xmlns="http://www.w3.org/2000/svg" width="32" height="32" fill="none"><path d="M 13.333 17.333 C 13.906 18.099 14.636 18.732 15.475 19.191 C 16.314 19.649 17.242 19.922 18.195 19.99 C 19.149 20.058 20.106 19.921 21.002 19.587 C 21.898 19.252 22.711 18.73 23.387 18.053 L 27.387 14.053 C 28.601 12.796 29.273 11.112 29.258 9.364 C 29.243 7.616 28.541 5.944 27.305 4.708 C 26.069 3.472 24.397 2.771 22.649 2.756 C 20.901 2.74 19.217 3.412 17.96 4.627 L 15.667 6.907" fill="transparent" stroke-width="2.66667" stroke="rgb(0, 0, 0)" stroke-linecap="round" stroke-linejoin="round" stroke-dasharray=""></path><path d="M 18.667 14.667 C 18.094 13.901 17.363 13.268 16.525 12.809 C 15.686 12.351 14.758 12.079 13.805 12.01 C 12.851 11.942 11.894 12.079 10.998 12.414 C 10.102 12.748 9.289 13.271 8.613 13.947 L 4.613 17.947 C 3.399 19.204 2.727 20.888 2.742 22.636 C 2.757 24.384 3.459 26.056 4.695 27.292 C 5.931 28.528 7.603 29.229 9.351 29.244 C 11.099 29.26 12.783 28.588 14.04 27.373 L 16.32 25.093" fill="transparent" stroke-width="2.66667" stroke="rgb(0, 0, 0)" stroke-linecap="round" stroke-linejoin="round" stroke-dasharray=""></path></svg>