<svg xmlns="http://www.w3.org/2000/svg" width="50" height="50" fill="none"><path d="M 28.171 8.053 C 28.171 8.053 33.178 8.053 38.185 11.391 Z" fill="rgb(0,0,0)"></path><path d="M 28.171 8.053 C 28.171 8.053 33.178 8.053 38.185 11.391" fill="transparent" stroke-width="2.083333333333333" stroke="rgb(0,80,13)" stroke-linecap="round" stroke-linejoin="round" stroke-dasharray=""></path><path d="M 18.158 8.053 C 18.158 8.053 13.15 8.053 8.143 11.391 Z" fill="rgb(0,0,0)"></path><path d="M 18.158 8.053 C 18.158 8.053 13.15 8.053 8.143 11.391" fill="transparent" stroke-width="2.083333333333333" stroke="rgb(0,80,13)" stroke-linecap="round" stroke-linejoin="round" stroke-dasharray=""></path><path d="M 37.934 6.944 L 38.841 11.971" fill="transparent" stroke-width="2.083333333333333" stroke="rgb(0,80,13)" stroke-linecap="round" stroke-linejoin="round" stroke-dasharray=""></path><path d="M 33.813 12.879 L 38.84 11.971" fill="transparent" stroke-width="2.083333333333333" stroke="rgb(0,80,13)" stroke-linecap="round" stroke-linejoin="round" stroke-dasharray=""></path><path d="M 8.571 6.944 L 7.663 11.971" fill="transparent" stroke-width="2.083333333333333" stroke="rgb(0,80,13)" stroke-linecap="round" stroke-linejoin="round" stroke-dasharray=""></path><path d="M 12.69 12.879 L 7.663 11.971" fill="transparent" stroke-width="2.083333333333333" stroke="rgb(0,80,13)" stroke-linecap="round" stroke-linejoin="round" stroke-dasharray=""></path><path d="M 38.209 35.102 C 38.209 40.523 33.814 44.918 28.392 44.918 C 22.971 44.918 18.576 40.523 18.576 35.102" fill="transparent" stroke-width="2.083333333333333" stroke="rgb(0,80,13)" stroke-linecap="round" stroke-linejoin="round" stroke-dasharray=""></path><path d="M 38.208 34.581 L 38.208 27.422" fill="transparent" stroke-width="2.083333333333333" stroke="rgb(0,80,13)" stroke-linecap="round" stroke-linejoin="round" stroke-dasharray=""></path><path d="M 34.036 27.247 C 34.084 26.095 35.057 25.2 36.209 25.249 C 37.361 25.297 38.256 26.27 38.208 27.422" fill="transparent" stroke-width="2.083333333333333" stroke="rgb(0,80,13)" stroke-linecap="round" stroke-linejoin="round" stroke-dasharray=""></path><path d="M 29.864 27.109 C 29.912 25.957 30.885 25.062 32.037 25.11 C 33.189 25.159 34.084 26.132 34.036 27.284" fill="transparent" stroke-width="2.083333333333333" stroke="rgb(0,80,13)" stroke-linecap="round" stroke-linejoin="round" stroke-dasharray=""></path><path d="M 29.867 27.029 C 29.959 25.88 30.966 25.023 32.115 25.115 C 33.264 25.208 34.121 26.215 34.029 27.364" fill="transparent" stroke-width="2.083333333333333" stroke="rgb(0,80,13)" stroke-linecap="round" stroke-linejoin="round" stroke-dasharray=""></path><path d="M 25.665 26.823 C 25.738 25.672 26.731 24.799 27.882 24.873 C 29.032 24.947 29.905 25.939 29.832 27.09" fill="transparent" stroke-width="2.083333333333333" stroke="rgb(0,80,13)" stroke-linecap="round" stroke-linejoin="round" stroke-dasharray=""></path><path d="M 15.552 28.149 C 14.751 27.32 14.774 25.998 15.603 25.197 C 16.433 24.396 17.754 24.419 18.555 25.248" fill="transparent" stroke-width="2.083333333333333" stroke="rgb(0,80,13)" stroke-linecap="round" stroke-linejoin="round" stroke-dasharray=""></path><path d="M 21.49 13.478 C 21.49 12.325 22.425 11.39 23.578 11.39 C 24.731 11.39 25.665 12.325 25.665 13.478" fill="transparent" stroke-width="2.083333333333333" stroke="rgb(0,80,13)" stroke-linecap="round" stroke-linejoin="round" stroke-dasharray=""></path><path d="M 25.665 26.801 L 25.665 13.478" fill="transparent" stroke-width="2.083333333333333" stroke="rgb(0,80,13)" stroke-linecap="round" stroke-linejoin="round" stroke-dasharray=""></path><path d="M 21.49 13.478 L 21.49 30.055" fill="transparent" stroke-width="2.083333333333333" stroke="rgb(0,80,13)" stroke-linecap="round" stroke-linejoin="round" stroke-dasharray=""></path><path d="M 19.723 26.569 L 18.555 25.248" fill="transparent" stroke-width="2.083333333333333" stroke="rgb(0,80,13)" stroke-linecap="round" stroke-linejoin="round" stroke-dasharray=""></path><path d="M 16.607 29.533 C 17.772 30.812 18.619 32.615 18.576 35.213" fill="transparent" stroke-width="2.083333333333333" stroke="rgb(0,80,13)" stroke-linecap="round" stroke-linejoin="round" stroke-dasharray=""></path><path d="M 15.552 28.149 L 16.638 29.569" fill="transparent" stroke-width="2.083333333333333" stroke="rgb(0,80,13)" stroke-linecap="round" stroke-linejoin="round" stroke-dasharray=""></path><path d="M 24.671 9.457 C 24.879 9.133 25 8.747 25 8.333 C 25 7.183 24.067 6.25 22.917 6.25 C 21.766 6.25 20.833 7.183 20.833 8.333 C 20.833 8.909 21.067 9.429 21.444 9.806" fill="transparent" stroke-width="2.083333333333333" stroke="rgb(0,80,13)" stroke-linecap="round" stroke-linejoin="round" stroke-dasharray=""></path></svg>